<?xml version="1.0" encoding="UTF-8" standalone="no"?>
<!-- Created with Inkscape (http://www.inkscape.org/) -->

<svg
   width="210mm"
   height="210mm"
   viewBox="0 0 210 210"
   version="1.1"
   id="svg160"
   inkscape:version="1.1.2 (0a00cf5339, 2022-02-04)"
   sodipodi:docname="favicon.svg"
   xmlns:inkscape="http://www.inkscape.org/namespaces/inkscape"
   xmlns:sodipodi="http://sodipodi.sourceforge.net/DTD/sodipodi-0.dtd"
   xmlns="http://www.w3.org/2000/svg"
   xmlns:svg="http://www.w3.org/2000/svg">
  <sodipodi:namedview
     id="namedview162"
     pagecolor="#ffffff"
     bordercolor="#666666"
     borderopacity="1.0"
     inkscape:pageshadow="2"
     inkscape:pageopacity="0.0"
     inkscape:pagecheckerboard="0"
     inkscape:document-units="mm"
     showgrid="false"
     inkscape:zoom="0.5737093"
     inkscape:cx="207.42212"
     inkscape:cy="603.96441"
     inkscape:window-width="1920"
     inkscape:window-height="1007"
     inkscape:window-x="1920"
     inkscape:window-y="36"
     inkscape:window-maximized="1"
     inkscape:current-layer="layer1"
     inkscape:lockguides="false"
     units="px" />
  <defs
     id="defs157">
    <clipPath
       clipPathUnits="userSpaceOnUse"
       id="clipPath318">
      <rect
         id="rect320"
         width="207.40117"
         height="207.40115"
         x="1.2994156"
         y="45.139561"
         style="stroke-width:0.264583" />
    </clipPath>
    <clipPath
       clipPathUnits="userSpaceOnUse"
       id="clipPath322">
      <rect
         id="rect324"
         width="207.40117"
         height="207.40115"
         x="1.2994156"
         y="45.139561"
         style="stroke-width:0.264583" />
    </clipPath>
    <clipPath
       clipPathUnits="userSpaceOnUse"
       id="clipPath326">
      <rect
         id="rect328"
         width="207.40117"
         height="207.40115"
         x="1.2994156"
         y="45.139561"
         style="stroke-width:0.264583" />
    </clipPath>
    <clipPath
       clipPathUnits="userSpaceOnUse"
       id="clipPath330">
      <rect
         id="rect332"
         width="207.40117"
         height="207.40115"
         x="1.2994156"
         y="45.139561"
         style="stroke-width:0.264583" />
    </clipPath>
  </defs>
  <g
     inkscape:label="Layer 1"
     inkscape:groupmode="layer"
     id="layer1">
    <path
       style="fill:#bd1c2b;fill-opacity:1;fill-rule:nonzero;stroke:none;stroke-width:1.38882"
       d="m 120.46929,213.99656 c 3.72703,0 7.50256,-0.36633 11.32767,-1.10134 3.81865,-0.7377 7.94116,-1.88687 12.35176,-3.45544 l 2.93956,-1.03016 v -34.12047 c -7.35016,7.84278 -15.63905,11.76524 -24.85475,11.76524 -0.72144,0 -1.43878,-0.008 -2.14899,-0.084 v 28.01337 c 0.13176,0 0.2551,0.003 0.38592,0.003"
       id="path2"
       clip-path="url(#clipPath330)"
       transform="translate(0.340138,-43.840137)" />
    <path
       style="fill:#bd1c2b;fill-opacity:1;fill-rule:nonzero;stroke:none;stroke-width:1.38882"
       d="m 120.61616,96.93406 c -0.17556,0 -0.35116,0.003 -0.53162,0.003 v 28.01802 c 0.75933,-0.058 1.51895,-0.0853 2.3003,-0.0853 9.80254,0 18.03648,4.06863 24.70352,12.20536 v -34.41267 c -4.7089,-1.95854 -9.18981,-3.406679 -13.45835,-4.339669 -4.26337,-0.92793 -8.59827,-1.39429 -13.01385,-1.39429"
       id="path4"
       clip-path="url(#clipPath326)"
       transform="translate(0.340138,-43.840137)" />
    <path
       style="fill:#bd1c2b;fill-opacity:1;fill-rule:nonzero;stroke:none;stroke-width:1.38882"
       d="m 98.407694,90.082277 c -7.05704,2.891419 -13.25712,6.911364 -18.60073,12.054193 -5.34328,5.14782 -9.60695,11.2778 -12.79647,18.38898 -3.18439,7.10593 -4.77913,14.92319 -4.77913,23.45562 0,8.52723 1.62185,16.39912 4.8549,23.60311 3.23314,7.20858 7.52402,13.43059 12.86725,18.67701 5.34307,5.2455 11.51628,9.31343 18.53029,12.20534 6.889036,2.84266 14.093246,4.27953 21.600736,4.32799 v -28.00627 c -3.40656,-0.22862 -6.61296,-0.97745 -9.61206,-2.27922 -3.62921,-1.56759 -6.7917,-3.72041 -9.48756,-6.47139 -2.696596,-2.74432 -4.806186,-5.97737 -6.325116,-9.70411 -1.51891,-3.72681 -2.27866,-7.79607 -2.27866,-12.20588 0,-4.31244 0.75975,-8.33146 2.27866,-12.05885 1.51893,-3.72644 3.60182,-6.9379 6.249206,-9.63401 2.64746,-2.69581 5.80963,-4.82825 9.48722,-6.39553 3.01091,-1.28559 6.24381,-2.03939 9.68831,-2.27331 V 85.753839 c -7.55018,0.06502 -14.77655,1.502521 -21.676846,4.328436"
       id="path10"
       clip-path="url(#clipPath322)"
       transform="translate(0.340138,-43.840137)" />
    <path
       style="fill:#bd1c2b;fill-opacity:1;fill-rule:nonzero;stroke:none;stroke-width:1.38882"
       d="m 123.93617,141.18806 c 0,98.6034 -4.54016,138.82049 -4.54016,138.82049 0,0 -4.86056,-40.86927 -4.86056,-139.14606 0,-95.353952 5.0395,-123.871039 5.0395,-123.871039 0,0 4.36122,30.784607 4.36122,124.196619"
       id="path40"
       clip-path="url(#clipPath318)"
       transform="translate(0.340138,-43.840137)" />
  </g>
</svg>
