<?xml version="1.0" encoding="UTF-8" standalone="no"?>
<svg
   width="896.28119pt"
   height="361.71481pt"
   viewBox="0 0 896.28116 361.71482"
   version="1.2"
   id="svg59"
   sodipodi:docname="logo-black.svg"
   inkscape:version="1.1.2 (0a00cf5339, 2022-02-04)"
   xmlns:inkscape="http://www.inkscape.org/namespaces/inkscape"
   xmlns:sodipodi="http://sodipodi.sourceforge.net/DTD/sodipodi-0.dtd"
   xmlns="http://www.w3.org/2000/svg"
   xmlns:svg="http://www.w3.org/2000/svg">
  <defs
     id="defs63" />
  <sodipodi:namedview
     id="namedview61"
     pagecolor="#ffffff"
     bordercolor="#666666"
     borderopacity="1.0"
     inkscape:pageshadow="2"
     inkscape:pageopacity="0.0"
     inkscape:pagecheckerboard="0"
     inkscape:document-units="pt"
     showgrid="false"
     inkscape:zoom="0.51510935"
     inkscape:cx="617.34465"
     inkscape:cy="395.06175"
     inkscape:window-width="1920"
     inkscape:window-height="1007"
     inkscape:window-x="1920"
     inkscape:window-y="36"
     inkscape:window-maximized="1"
     inkscape:current-layer="surface278"
     fit-margin-top="0"
     fit-margin-left="0"
     fit-margin-right="0"
     fit-margin-bottom="0" />
  <g
     id="surface278"
     transform="translate(-418.67031,-862.88809)">
    <path
       style="fill:#211e1e;fill-opacity:1;fill-rule:nonzero;stroke:none"
       d="M 1314.9515,1224.6029 H 418.67031 V 862.88809 h 896.28119 z m 0,0"
       id="path22" />
    <path
       style="fill:#ffffff;fill-opacity:1;fill-rule:nonzero;stroke:none"
       d="m 538.59611,1037.2748 h 3.91796 c 4.09375,0 7.23829,-0.8477 9.42579,-2.5391 2.1875,-1.6953 3.28125,-4.1328 3.28125,-7.3086 0,-3.1758 -1.09375,-5.6133 -3.28125,-7.3086 -2.1875,-1.6953 -5.33204,-2.5391 -9.42579,-2.5391 h -3.91796 z m 45.64453,44.164 h -25.83985 l -19.80468,-30.7148 v 30.7148 H 517.8422 v -79.8515 h 32.29687 c 4.44922,0 8.33204,0.6523 11.64844,1.9609 3.32031,1.3047 6.05469,3.0859 8.20703,5.3476 2.15625,2.2579 3.77735,4.8711 4.875,7.836 1.09375,2.9648 1.64063,6.1406 1.64063,9.5312 0,6.0703 -1.46875,10.9961 -4.39453,14.7735 -2.9336,3.7773 -7.25391,6.3359 -12.97266,7.6758 z m 0,0"
       id="path42" />
    <path
       style="fill:#ffffff;fill-opacity:1;fill-rule:nonzero;stroke:none"
       d="m 609.55313,1041.513 c 0,3.1758 0.59765,6.1055 1.80078,8.7891 1.19922,2.6836 2.82031,5.0117 4.87109,6.9883 2.04688,1.9765 4.42969,3.5156 7.14453,4.6054 2.71875,1.0977 5.59766,1.6446 8.63282,1.6446 3.03515,0 5.91015,-0.5469 8.63281,-1.6446 2.71484,-1.0898 5.11719,-2.6289 7.19922,-4.6054 2.08203,-1.9766 3.72265,-4.3047 4.92578,-6.9883 1.19922,-2.6836 1.80078,-5.6133 1.80078,-8.7891 0,-3.1757 -0.60156,-6.1054 -1.80078,-8.789 -1.20313,-2.6836 -2.84375,-5.0157 -4.92578,-6.9922 -2.08203,-1.9727 -4.48438,-3.5117 -7.19922,-4.6055 -2.72266,-1.0937 -5.59766,-1.6406 -8.63281,-1.6406 -3.03516,0 -5.91407,0.5469 -8.63282,1.6406 -2.71484,1.0938 -5.09765,2.6328 -7.14453,4.6055 -2.05078,1.9765 -3.67187,4.3086 -4.87109,6.9922 -1.20313,2.6836 -1.80078,5.6133 -1.80078,8.789 m -21.71094,0 c 0,-5.9297 1.09375,-11.457 3.28125,-16.5742 2.1875,-5.1172 5.22656,-9.5859 9.10937,-13.3945 3.88282,-3.8164 8.52344,-6.7969 13.92579,-8.9531 5.40234,-2.1524 11.34765,-3.22651 17.84375,-3.22651 6.42578,0 12.35546,1.07411 17.78906,3.22651 5.4375,2.1562 10.11719,5.1367 14.03515,8.9531 3.91797,3.8086 6.96875,8.2773 9.16016,13.3945 2.1875,5.1172 3.28125,10.6445 3.28125,16.5742 0,5.9297 -1.09375,11.4532 -3.28125,16.5743 -2.19141,5.1171 -5.24219,9.582 -9.16016,13.3945 -3.91796,3.8125 -8.59765,6.7969 -14.03515,8.9492 -5.4336,2.1523 -11.36328,3.2305 -17.78906,3.2305 -6.4961,0 -12.44141,-1.0782 -17.84375,-3.2305 -5.40235,-2.1523 -10.04297,-5.1367 -13.92579,-8.9492 -3.88281,-3.8125 -6.92187,-8.2774 -9.10937,-13.3945 -2.1875,-5.1211 -3.28125,-10.6446 -3.28125,-16.5743"
       id="path44" />
    <path
       style="fill:#ffffff;fill-opacity:1;fill-rule:nonzero;stroke:none"
       d="m 710.1547,1000.474 v 43.4218 c 0,2.3282 0.0898,4.711 0.26562,7.1485 0.17579,2.4336 0.70704,4.6406 1.58985,6.6172 0.88281,1.9765 2.27734,3.5859 4.18359,4.8203 1.90625,1.2344 4.58594,1.8515 8.04688,1.8515 3.45703,0 6.125,-0.6171 7.99609,-1.8515 1.87109,-1.2344 3.26563,-2.8438 4.18359,-4.8203 0.91797,-1.9766 1.46485,-4.1836 1.64063,-6.6172 0.17578,-2.4375 0.26562,-4.8203 0.26562,-7.1485 v -43.4218 h 20.64844 v 46.2812 c 0,12.4258 -2.83984,21.4961 -8.52344,27.2149 -5.68359,5.7187 -14.42187,8.5781 -26.21093,8.5781 -11.79297,0 -20.54297,-2.8594 -26.26172,-8.5781 -5.71875,-5.7188 -8.57813,-14.7891 -8.57813,-27.2149 v -46.2812 z m 0,0"
       id="path46" />
    <path
       style="fill:#ffffff;fill-opacity:1;fill-rule:nonzero;stroke:none"
       d="m 814.57264,1036.7474 h 41.1953 c 0,4.2344 -0.1757,8.0859 -0.5273,11.543 -0.3555,3.4609 -1.0586,6.6719 -2.1172,9.6367 -1.4844,4.168 -3.4961,7.8555 -6.0391,11.0664 -2.539,3.2148 -5.5234,5.8945 -8.9492,8.0469 -3.4258,2.1562 -7.1836,3.7969 -11.2773,4.9258 -4.0938,1.1289 -8.4024,1.6953 -12.918,1.6953 -6.2148,0 -11.8789,-1.0235 -17,-3.0703 -5.1172,-2.0469 -9.5156,-4.9258 -13.1836,-8.6329 -3.6719,-3.707 -6.5312,-8.1523 -8.5781,-13.3437 -2.0469,-5.1875 -3.0703,-10.9258 -3.0703,-17.207 0,-6.2149 1.0039,-11.9141 3.0156,-17.1055 2.0156,-5.1875 4.875,-9.6172 8.5781,-13.2891 3.7071,-3.6718 8.1719,-6.5312 13.3985,-8.5781 5.2226,-2.0469 11.0468,-3.07021 17.4726,-3.07021 8.3321,0 15.6367,1.79681 21.9219,5.39831 6.2852,3.6016 11.2617,9.1797 14.9336,16.7344 l -19.6992,8.1524 c -1.836,-4.375 -4.2188,-7.5196 -7.1485,-9.4258 -2.9297,-1.9063 -6.2656,-2.8594 -10.0078,-2.8594 -3.1054,0 -5.9297,0.582 -8.4726,1.75 -2.5391,1.1641 -4.711,2.8242 -6.5118,4.9766 -1.8007,2.1523 -3.2148,4.75 -4.2343,7.7851 -1.0274,3.0352 -1.5352,6.4258 -1.5352,10.168 0,3.3867 0.4375,6.5273 1.3242,9.4219 0.8789,2.8945 2.2032,5.4023 3.9688,7.5195 1.7656,2.1172 3.9531,3.7578 6.5664,4.9258 2.6094,1.164 5.6484,1.7461 9.1055,1.7461 2.0468,0 4.0273,-0.2266 5.9336,-0.6875 1.9062,-0.461 3.6171,-1.1993 5.1367,-2.2266 1.5156,-1.0195 2.7695,-2.3437 3.7578,-3.9687 0.9883,-1.625 1.6562,-3.6016 2.0117,-5.9297 h -17.0508 z m 0,0"
       id="path48" />
    <path
       style="fill:#ffffff;fill-opacity:1;fill-rule:nonzero;stroke:none"
       d="m 889.65475,1032.4037 h 29.9726 v -30.8164 h 20.7539 v 79.8476 h -20.7539 v -32.9336 h -29.9726 v 32.9336 h -20.754 v -79.8476 h 20.754 z m 0,0"
       id="path50" />
    <path
       style="fill:#ffffff;fill-opacity:1;fill-rule:nonzero;stroke:none"
       d="m 1034.0257,1053.8958 c -2.6093,-1.1289 -4.8867,-2.6835 -6.8281,-4.6601 -1.9414,-1.9766 -3.4609,-4.3047 -4.5547,-6.9883 -1.0937,-2.6836 -1.6406,-5.6133 -1.6406,-8.793 0,-3.1015 0.5469,-6 1.6406,-8.6836 1.0938,-2.6796 2.5938,-4.9921 4.5,-6.9335 1.9063,-1.9415 4.1836,-3.4766 6.8321,-4.6094 1.0234,-0.4336 2.082,-0.7774 3.1718,-1.043 -0.078,6.418 -0.1211,13.3789 -0.1211,20.918 0,7.7734 0.043,15.0429 0.1172,21.8359 -1.0703,-0.2656 -2.1093,-0.6094 -3.1172,-1.043 m 9.4727,-54.36701 c -0.7852,-41.1211 -2.8437,-55.625 -2.8437,-55.625 0,0 -2.0938,11.8671 -3.1016,47.6914 -4.2149,0.3632 -8.2891,1.3359 -12.2109,2.9414 -5.0821,2.0859 -9.5469,4.9804 -13.3946,8.68351 -3.8476,3.707 -6.9219,8.1211 -9.2148,13.2382 -2.293,5.1211 -3.44136,10.75 -3.44136,16.8907 0,6.1445 1.16396,11.8086 3.49606,17 2.3281,5.1875 5.4179,9.6718 9.2656,13.4492 3.8476,3.7773 8.293,6.707 13.3437,8.7891 3.8946,1.6054 7.9297,2.5781 12.1016,2.9453 0.957,40.3203 3.0313,57.7695 3.0313,57.7695 0,0 1.6835,-14.918 2.6367,-49.582 2.0508,-0.094 4.125,-0.3438 6.2148,-0.7461 2.7539,-0.5274 5.7188,-1.3594 8.8985,-2.4883 l 2.1171,-0.7422 v -24.5664 c -5.0039,5.3398 -10.6093,8.1484 -16.8125,8.4414 0.1368,-9.0977 0.2149,-19.1758 0.2149,-30.2812 0,-4.8008 -0.016,-9.3633 -0.047,-13.7149 6.5547,0.3047 12.1055,3.2227 16.6445,8.7617 v -24.7812 c -3.3906,-1.4141 -6.6211,-2.4531 -9.6914,-3.125 -2.3711,-0.51551 -4.7734,-0.83201 -7.207,-0.94911"
       id="path52" />
    <path
       style="fill:#ffffff;fill-opacity:1;fill-rule:nonzero;stroke:none"
       d="m 1122.4554,1045.1146 c 0,2.332 -0.09,4.7148 -0.2656,7.1484 -0.1758,2.4375 -0.7266,4.6446 -1.6406,6.6211 -0.918,1.9766 -2.3164,3.5821 -4.1836,4.8164 -1.8711,1.2383 -4.5391,1.8516 -7.9961,1.8516 -3.4609,0 -6.1445,-0.6133 -8.0508,-1.8516 -1.9023,-1.2343 -3.3008,-2.8398 -4.1797,-4.8164 -0.8867,-1.9765 -1.414,-4.1836 -1.5898,-6.6211 -0.1758,-2.4336 -0.2656,-4.8164 -0.2656,-7.1484 v -43.418 h -20.7579 v 46.2774 c 0,12.4297 2.8594,21.4961 8.5782,27.2187 5.7187,5.7188 14.4726,8.5781 26.2656,8.5781 11.7891,0 20.5273,-2.8593 26.2109,-8.5781 5.6836,-5.7226 8.5235,-14.789 8.5235,-27.2187 v -46.2774 h -20.6485 z m 0,0"
       id="path54" />
    <path
       style="fill:#ffffff;fill-opacity:1;fill-rule:nonzero;stroke:none"
       d="m 1152.3187,1001.6966 v 17.5782 h 17.0508 v 62.2695 h 20.7539 v -62.2695 h 17.0508 v -17.5782 z m 0,0"
       id="path56" />
  </g>
</svg>
